<svg xmlns="http://www.w3.org/2000/svg" width="30.089" height="31.88" viewBox="0 0 30.089 31.88"><path d="M841.8,0V31.88h30.089V0Zm18.083,27.094a4.413,4.413,0,0,0,1.428-3.277,4.469,4.469,0,1,0-8.939,0,4.413,4.413,0,0,0,1.428,3.277H847.13a24.186,24.186,0,0,0,2.688-10.419A24.186,24.186,0,0,0,847.13,6.256,11.27,11.27,0,0,0,852.8,9.364a1.94,1.94,0,0,0-1.178,1.807v.01a1.92,1.92,0,0,0,1.93,1.92,1.952,1.952,0,0,0,1.93-1.93,2.006,2.006,0,0,0-1.172-1.807,7.563,7.563,0,0,0,2.519-6.052,7.493,7.493,0,0,0,2.6,6.052,1.938,1.938,0,0,0,.712,3.737h.01a1.948,1.948,0,0,0,.742-3.737,11.24,11.24,0,0,0,5.662-3.108,24.133,24.133,0,0,0-2.683,10.419,24.133,24.133,0,0,0,2.683,10.419Z" transform="translate(-841.8)" fill="#fff" fill-rule="evenodd"/></svg>