<svg xmlns="http://www.w3.org/2000/svg" width="32" height="32.794" viewBox="0 0 32 32.794">
  <g id="outdoor-holidays-relax-svgrepo-com" transform="translate(0 0.407)">
    <path d="M30.2,11.4,16,1,1.8,11.4A2.088,2.088,0,0,0,1,13v1.8A3.16,3.16,0,0,0,3.8,18,3,3,0,0,0,7,15a2.946,2.946,0,0,0,3,3,2.946,2.946,0,0,0,3-3,3,3,0,0,0,6,0,3,3,0,0,0,6,0,3,3,0,0,0,3.2,3A3.091,3.091,0,0,0,31,14.8V13A2.088,2.088,0,0,0,30.2,11.4Z" fill="none" stroke="#000" stroke-linecap="round" stroke-linejoin="round" stroke-miterlimit="10" stroke-width="2"/>
    <line x2="10" transform="translate(11 25)" fill="none" stroke="#000" stroke-linecap="round" stroke-linejoin="round" stroke-miterlimit="10" stroke-width="2"/>
    <line y2="13" transform="translate(16 18)" fill="none" stroke="#000" stroke-linecap="round" stroke-linejoin="round" stroke-miterlimit="10" stroke-width="2"/>
    <path d="M10,31V28H6" fill="none" stroke="#000" stroke-linecap="round" stroke-linejoin="round" stroke-miterlimit="10" stroke-width="2"/>
    <path d="M4,24l.4.8A6.24,6.24,0,0,1,4,31H4" fill="none" stroke="#000" stroke-linecap="round" stroke-linejoin="round" stroke-miterlimit="10" stroke-width="2"/>
    <path d="M22,31V28h4" fill="none" stroke="#000" stroke-linecap="round" stroke-linejoin="round" stroke-miterlimit="10" stroke-width="2"/>
    <path d="M28,24l-.4.8A6.24,6.24,0,0,0,28,31h0" fill="none" stroke="#000" stroke-linecap="round" stroke-linejoin="round" stroke-miterlimit="10" stroke-width="2"/>
    <path d="M16,1,7.8,11A3.775,3.775,0,0,0,7,13.3V15" fill="none" stroke="#000" stroke-linecap="round" stroke-linejoin="round" stroke-miterlimit="10" stroke-width="2"/>
    <path d="M16,1l8.2,10a3.775,3.775,0,0,1,.8,2.3V15" fill="none" stroke="#000" stroke-linecap="round" stroke-linejoin="round" stroke-miterlimit="10" stroke-width="2"/>
    <path d="M16,1,13.2,11.2a8.807,8.807,0,0,0-.2,1.7V15" fill="none" stroke="#000" stroke-linecap="round" stroke-linejoin="round" stroke-miterlimit="10" stroke-width="2"/>
    <path d="M16,1l2.8,10.2a8.807,8.807,0,0,1,.2,1.7V15" fill="none" stroke="#000" stroke-linecap="round" stroke-linejoin="round" stroke-miterlimit="10" stroke-width="2"/>
  </g>
</svg>
