<svg xmlns="http://www.w3.org/2000/svg" width="30.052" height="32.733" viewBox="0 0 30.052 32.733">
  <g transform="translate(-20.969 -0.001)">
    <g transform="translate(20.969 30.873)">
      <g transform="translate(0)">
        <path d="M21.774,482.893a.674.674,0,0,0-.762.57,4.317,4.317,0,0,0-.044.612.673.673,0,0,0,1.346,0,2.941,2.941,0,0,1,.03-.42A.673.673,0,0,0,21.774,482.893Z" transform="translate(-20.969 -482.886)"/>
      </g>
    </g>
    <g transform="translate(21.647 0.001)">
      <g transform="translate(0 0)">
        <path d="M59.621,23.736A6.132,6.132,0,0,0,54.9,21.521c-.04,0-.08,0-.121,0L56.747,9.732l.016-.092.46-2.749h0l.931-5.563a1.124,1.124,0,0,0-.5-1.137A1.153,1.153,0,0,0,56.4.183L37.294,12.448h0l-.012.008a4.471,4.471,0,0,0-1.865,4.895,11.3,11.3,0,0,0,3.77,5.893c.206.184.418.362.633.535A4.736,4.736,0,0,1,35.16,27.8,4.275,4.275,0,0,0,31.7,29.567a.673.673,0,1,0,1.091.788,2.926,2.926,0,0,1,2.365-1.21,6.057,6.057,0,0,0,5.849-4.486,16.355,16.355,0,0,0,5.1,2.321,11.559,11.559,0,0,0,2.8.37h0a5.734,5.734,0,0,0,4.716-1.95l.039-.05a4.23,4.23,0,0,0,.746-1.7l.132-.789c.114.005.229.008.345.008A4.789,4.789,0,0,1,58.586,24.6a.673.673,0,1,0,1.034-.861ZM55.9,6.624c-1.1,3.515-3.121,5.6-7.179,7.394a15.3,15.3,0,0,0-2.145-1.2c2.134-.817,5.535-2.321,7.54-4.25A10.847,10.847,0,0,0,55.975,6.2ZM51.441,18.466l.045.062a7.847,7.847,0,0,1,1.291,2.637,6.516,6.516,0,0,1-4.369-5.714A13.294,13.294,0,0,1,51.441,18.466Zm4.284-16.25C54.483,4.021,52.254,5.558,44.86,9.19Zm-.509,2.541a9.863,9.863,0,0,1-2.029,2.838C50.9,9.8,46.339,11.493,45,11.96a.668.668,0,0,0-.246.152L44.7,12.1a16.364,16.364,0,0,0-1.822-.45C49.9,8.278,53.278,6.435,55.216,4.756Zm-2.65,19.826a4.446,4.446,0,0,1-3.648,1.424h0a10.218,10.218,0,0,1-2.476-.33,15.406,15.406,0,0,1-6.36-3.436,9.982,9.982,0,0,1-3.346-5.153,3.153,3.153,0,0,1,1.275-3.5l0,0h0l.008-.005a4.884,4.884,0,0,1,2.293-.771c.163-.011.333-.017.5-.017a12.119,12.119,0,0,1,3.489.592,13.525,13.525,0,0,1,2.737,1.184v.449a7.863,7.863,0,0,0,5.93,7.612A4.724,4.724,0,0,1,52.566,24.582Zm1.143-4.845a9.371,9.371,0,0,0-1.1-1.953,2.681,2.681,0,0,0,1.574-.9Zm-.482-3.8a1.336,1.336,0,0,1-1.858.294.678.678,0,0,0-.07-.044,15.622,15.622,0,0,0-1.347-1.251,14.06,14.06,0,0,0,5.18-3.883A12.172,12.172,0,0,1,53.226,15.935Z" transform="translate(-31.577 -0.001)"/>
      </g>
    </g>
    <g transform="translate(49.363 24.933)">
      <g >
        <path d="M466.745,391.611a6.162,6.162,0,0,0-.35-1.2.673.673,0,0,0-1.247.506,4.83,4.83,0,0,1,.274.941.673.673,0,0,0,1.324-.243Z" transform="translate(-465.098 -389.987)"/>
      </g>
    </g>
  </g>
</svg>
