<svg xmlns="http://www.w3.org/2000/svg" width="38.758" height="30.345" viewBox="0 0 38.758 30.345">
  <g transform="translate(0 -44.207)">
    <g transform="translate(0 44.207)">
      <path d="M148.439,241.068a5.806,5.806,0,1,0,5.806,5.806A5.813,5.813,0,0,0,148.439,241.068Zm0,9a3.191,3.191,0,1,1,3.191-3.191A3.195,3.195,0,0,1,148.439,250.065Z" transform="translate(-129.061 -222.335)"/>
      <path d="M102.811,174.6a14.362,14.362,0,0,0-10.222,4.235,1.308,1.308,0,1,0,1.849,1.849,11.84,11.84,0,0,1,16.745,0,1.308,1.308,0,1,0,1.849-1.849A14.362,14.362,0,0,0,102.811,174.6Z" transform="translate(-83.433 -162.195)"/>
      <path d="M44.188,112.389a1.308,1.308,0,0,0,1.849,1.849,18.377,18.377,0,0,1,25.957,0,1.308,1.308,0,0,0,1.849-1.849A20.994,20.994,0,0,0,44.188,112.389Z" transform="translate(-39.637 -100.353)"/>
      <path d="M38.375,52.076a26.864,26.864,0,0,0-37.992,0,1.308,1.308,0,0,0,1.849,1.849,24.249,24.249,0,0,1,34.293,0,1.308,1.308,0,1,0,1.849-1.849Z" transform="translate(0 -44.207)"/>
    </g>
  </g>
</svg>
